<?xml version="1.0" encoding="utf-8"?>
<!-- Generator: Adobe Illustrator 23.1.1, SVG Export Plug-In . SVG Version: 6.00 Build 0)  -->
<svg version="1.1" id="Layer_1" xmlns="http://www.w3.org/2000/svg" xmlns:xlink="http://www.w3.org/1999/xlink" x="0px" y="0px"
	 viewBox="0 0 1827.9 592.6" style="enable-background:new 0 0 1827.9 592.6;" xml:space="preserve">
<style type="text/css">
	.st0{fill:#1C1818;}
</style>
<title>norbi.logo-hvit</title>
<path class="st0" d="M389.1,146.8c-2.8-3.8-7.3-9.4-9.7-8.6c-3.1,1.1-9.5,13.2-11.8,17.9c3,4,6.1,7.7,9.3,11.1
	c2,0.6,3.6-0.6,4.5-3.2c0.7-2.1,4.8-7.5,7.6-11C390.4,151.2,390.4,148.7,389.1,146.8z"/>
<path class="st0" d="M409.3,167.5c-2-3.7-7.4-7.2-10.2-8.1s-9.7,8.7-14.3,15.8c6,5.7,12.4,10.9,19.2,15.6c1.7-3,7-4.9,9.6-4.9
	s1.9-7.7,1.9-7.7S411.3,171.2,409.3,167.5z"/>
<path class="st0" d="M456.5,203.1c0.5-4.3,1-7,1.3-8.9l0,0l0,0c0.2-0.9,0.2-1.8,0.2-2.7c-0.1-1.3-0.8-2.1-2.3-3.5
	c-1.8-1.7-12-5.3-24.1,0.2c-9,4.1-11.8,9.2-10.2,13.1c0.7,1.5,1.8,2.8,3.3,3.6c6.2,3.8,23.4,8.9,26,9.8S455,215.2,456.5,203.1z"/>
<path class="st0" d="M382.9,200.5c-0.7-0.8-1.5-1.5-2.4-2.1c-4-3-13-9.8-14-21.7c0.4-0.1,0.8-0.3,1.1-0.5c2.7-1.8-0.6-11.9-2.1-13.5
	c-0.8-0.8-0.7-5.3-0.3-9.9c0.3-4.4,0.9-9.1,1.2-11c0.6-4,4.9-11.4,12.1-16.6c10-7.2,36.6-20.3,42.9-22.6l0,0c6.3-2.3-0.2-8-9.2-8.5
	l0,0c-4.8-0.3-16.6,5.2-27,10.7c-9.3,4.9-17.4,9.7-18.5,10.4c-2.2,1.5-6.9-4.1-5.6-6c0.7-1,7.5-5.1,14.4-9c3.6-2,12.7-5.2,18.2-7.1
	c1.7-0.6,6.8-1.6,9.5-2.2c0.6-0.1,1.1-0.2,1.6-0.3h0.2l0,0c0.7-0.1,1.4-0.4,2.1-0.8c0.3-0.1,0.4-0.4,0.4-0.7
	c-0.2-1.4-4.9-5.3-9.2-7.1c26.3-8.5,48-17.7,49.8-18.5c12.4-5.3,21.6-11.6,26.8-18c0.2,0,0.3,0,0.5,0s18.3-2.7,27.1,7.8
	c2.8,3.4,3.4,7.9,1.6,12.3c-2.9,7.1-16.1,24.2-76.3,30.3c-1.1,0.1-2,1.1-1.9,2.3c0.1,1.1,1.1,2,2.3,1.9l0,0
	c60.2-6.1,75.8-23.2,79.7-32.9c2.4-5.9,1.6-12-2.3-16.6c-8.1-9.6-21.9-9.9-27.9-9.5c1-1.8,1.6-3.7,1.8-5.7c0.2-3.4-1-8.3-7.7-12.2
	c-15.3-9-40.5-7.9-81.9,3.2c-24.4,6.6-45.2,28.2-58.3,45c-2.7-3-13.3-12.5-25.4,3.8c0,0-7.1-17.3-21.9-8.6c-0.3,0.2-0.6,0.4-0.9,0.6
	c-12.9-15.7-31.9-4.2-32.1-4.1c-1,0.6-1.3,1.9-0.7,2.8l0,0c0.2,0.3,0.5,0.6,0.8,0.8c0.6,0.3,1.4,0.3,2-0.1s16.1-9.7,26.8,3.3
	c0.1,0.1,0.2,0.2,0.4,0.3c-2,2.8-4.5,7.7-6.3,15.8c-3.7,16.3-4.1,12.1-5,15.6s2,8.5,7.7,5.9s13.7-5.4,18-13.9c0,0,4.3,0.1,3.7,3
	s-6.1,17.7,1.3,20.8c0,0-6.3,10.6-6.2,13.8l0,0c0,1.2,0.1,2.5,0.3,3.7l0,0c0,0.9,0.3,1.8,0.7,2.7c2.5,4.5,9.9,23.9,10,24.1
	c0.4,1.1,1.6,1.6,2.7,1.2c1.1-0.4,1.6-1.6,1.2-2.7c-0.3-0.8-7.6-19.9-10.2-24.6c-0.4-0.7-0.3-2.1,0.1-3.7c2.2-0.9,4.2-2.2,5.9-3.9
	c3.1-3.3,3.6,0.9,7.4-0.3s3.2-4.7,8.3-0.4c0.7,0.6,1.4,1.3,2.1,1.9c-0.8,8.5-0.3,23.3-0.3,23.5c0.3,1.7,6.3,16.2,8.8,22.3
	c0.2,0.5,0.6,0.8,1,1.1c0.5,0.3,1.2,0.3,1.7,0.1c1.1-0.4,1.6-1.7,1.1-2.7c-3.9-9.4-8.3-20.2-8.6-21.4s-0.2-11.7,0.1-18.9
	c2.1,2.1,3.9,3.6,5.4,3.8c2.8,0.2,3.9,1.4,5.1,5.8s0,20.5,16.8,23.8c0,0,7.3-1.2,7.7,9.4c0,0,1.4,6.3,3,8.7c0,0.1,0.1,0.1,0.1,0.2
	c3.3,8.9,10.3,14.2,13.8,16.8c0.7,0.5,1.3,0.9,1.5,1.1c0.7,1.2,2,8.4,2.9,14.3c0.1,0.7,0.5,1.3,1.1,1.5c0.4,0.2,0.8,0.3,1.2,0.2
	c1.1-0.2,1.9-1.2,1.8-2.4C385.7,211.4,384.2,202.4,382.9,200.5z M390.9,30.5c38.3-10.3,62.9-11.8,77.2-4.5c0.5,0.3,1.1,0.6,1.6,0.9
	c3.9,2.3,5.8,5.1,5.6,8.4c-0.5,7.7-11.5,17-28.9,24.4c-0.9,0.4-84.8,36-124.3,32.6C329.1,81.2,356.9,39.7,390.9,30.5z M357.8,160.3
	c-1,0.9-6.3-1.2-10.2-3.2s-7.8-22.7,1.5-33s12.8,1.6,12.9,5.4s-2.6,14.3-2.6,14.3S358.9,159.3,357.8,160.3z"/>
<path class="st0" d="M398.5,146c2.4-0.2,8.4-4.1,8.4-4.1s27.1-8.4,33-7.5c1.6,0.2,2.8,0.3,3.9,0.4s0.6-1.5,0.4-2.3
	c-2.5-4.5-5.3-8.8-8.3-13c-1.1-1.1-2.4-1.8-3.9-2c-3.1-0.5-7.4-0.2-13.4,1.5c-20.9,5.9-29.8,9.2-29.3,14S396.1,146.2,398.5,146z"/>
<path class="st0" d="M455.4,166.3c0.5-0.4,0.8-1,0.8-1.7c-0.9-4.7-2.2-9.2-3.7-13.7c-0.4-0.8-1.2-1.3-2-1.6c-3.8-1-7.7-1.8-11.7-2.3
	c0,0-14.5-0.4-19.4,2.6s-7.6,5.4-4.8,9.5s7.1,8.2,8.2,9.8s10.2-1,12.5-2.2s15.6-1.8,18.3-0.6C454.2,166.4,454.8,166.4,455.4,166.3z"
	/>
<path class="st0" d="M385.4,276.5c-0.3-0.8-0.6-1.7-1-2.5c-3.8-9-17.2-16.5-27.6-11.8c-3.6,0.9-7,2.5-9.8,4.9
	c-8.6,6.9-16.6,14.4-25.2,21.3c-3,2.5-6.5,5.2-10.2,5.9c-0.9,0.2-1.8,0.4-2.7,0.5c-4,0.7-8.2,0.7-10.9-3.7c-1-1.5-1.4-3.2-1.4-5
	c0.1-3.3,2.1-6.2,4.7-8.3c2.3-1.8,4.6-3.5,7.1-5c10-3.6,20.4-6.4,30-10.8c3.3-1.5,6.4-3.3,9.3-5.5c9.1-4.2,11.8-14,9.4-22.6
	c-0.3-1.1-0.7-2.2-1.1-3.2c-6.9-15.1-18.2-26.5-31.8-35.6l-0.1-0.1c-19.4-13-40.4-21.1-64.2-20.5c-8.2,0.2-17.6,5.5-16.4,16.4
	c1,8.9,2.7,17.6,4.4,26.4s2.8,17.2-0.5,25.9c-1.7,4.5-3.4,8.7-8.9,9.1c-5.8,0.4-7.6-4.4-8.7-8.4c-1.4-4.9-1.7-10-1.1-15
	c1.4-8.8,4.4-17.2,5.9-26c1.5-8.4,0.1-17.1-6.9-22.4c-9.9-7.6-22.6-10.6-34.8-8.2c-0.8,0.1-1.5,0.2-2.2,0.4
	c-28.5,7-52,22.6-70.3,45.5c-0.6,0.8-1.2,1.6-1.8,2.5c-9.2,14.2-3,30.9,14,36.5c5.8,1.9,11.8,3.3,17.7,4.9c4.5,1.2,9.1,2.3,13.3,4.2
	c1.5,0.7,3,1.6,4.4,2.6c1.9,1.2,3.8,2.5,5.6,3.8c4.3,3.2,4.9,9.4,1.3,13.8c-1.8,2.3-6.2,3.6-9.3,3.4c-3.7-0.5-7.2-1.9-10.2-4.2
	c-8.7-6.6-17-13.8-25.6-20.6c-0.6-0.5-1.3-0.9-1.9-1.3c-8.8-5.8-22.1-7.1-28.9-2.2c-0.4,0.3-0.9,0.7-1.3,1
	c-6.3,3.1-11.5,8.1-14.7,14.4c-1.5,3-2.7,6.2-3.7,9.5c-1.8,6.2-3,12.6-3.7,19.1c-2.5,22.3-1.1,44,7.2,65c0.3,0.8,0.6,1.7,0.9,2.5
	c3.8,9,17.2,16.4,27.6,11.8c3.6-0.9,7-2.5,9.8-4.9c8.6-6.9,16.6-14.4,25.2-21.3c3-2.5,6.5-5.2,10.2-5.9c0.9-0.2,1.8-0.4,2.7-0.5
	c4.8,0.2,9.9,2.8,11.7,6.8c0.3,0.6,0.5,1.3,0.6,1.9c-0.1,3.3-2.1,6.2-4.6,8.3c-2.3,1.8-4.6,3.5-7.1,5c-10,3.6-20.4,6.4-30,10.8
	c-3.3,1.5-6.4,3.3-9.3,5.5c-9.1,4.2-11.8,14-9.4,22.6c0.3,1.1,0.7,2.2,1.1,3.2c6.9,15.1,18.2,26.5,31.8,35.6l0.1,0.1
	c19.4,13,40.4,21.1,64.2,20.5c8.2-0.2,17.6-5.5,16.4-16.4c-1-8.8-2.7-17.6-4.4-26.4s-2.8-17.2,0.5-25.9c1.7-4.5,3.4-8.7,8.9-9.1
	c5.8-0.4,7.6,4.4,8.7,8.4c1.4,4.9,1.7,10,1.1,15.1c-1.4,8.8-4.4,17.2-5.9,26c-1.5,8.4-0.1,17.1,6.9,22.4c9.9,7.6,22.6,10.6,34.8,8.2
	c0.7-0.1,1.5-0.2,2.2-0.4c28.5-7,52-22.6,70.3-45.5c0.6-0.8,1.2-1.6,1.8-2.5c9.2-14.2,3-30.9-14-36.5c-5.8-1.9-11.8-3.3-17.7-4.9
	c-4.5-1.2-9.1-2.3-13.3-4.2c-1.5-0.7-3-1.6-4.4-2.6s-2.8-2.3-3.9-3.6c-3.5-4.2-3.7-9.2-0.6-13.3c3-4,7.6-3.8,12-2
	c1.8,0.7,3.6,1.7,5.2,2.9c7.9,6.1,15.7,12.3,23.4,18.5c0.6,0.5,1.3,0.9,1.9,1.3l0.1,0.1c0.6,0.5,1.3,0.9,1.9,1.3
	c8.8,5.8,22.1,7.1,28.9,2.2c0.5-0.3,0.9-0.7,1.3-1c6.3-3.1,11.5-8.1,14.7-14.4c1.5-3.1,2.7-6.2,3.7-9.5c1.8-6.2,3.1-12.6,3.7-19.1
	C395.2,319.1,393.7,297.5,385.4,276.5z M378.8,368.4c-0.3,0.6-0.6,1.2-0.9,1.8c-5.9,10.4-21.2,17.6-33,7.8
	c-5.1-4.2-9.8-8.8-15.2-12.7c-6.4-4.6-12.8-9.6-20-12.4c-6.8-2.7-14.7-1.8-19.9,4.3c-4.8,5.5-3.9,12.2-0.7,18.5
	c0.5,0.9,1.1,1.8,1.7,2.6c1.8,2.5,4.2,4.5,6.9,5.9l0.1,0.1l0.5,0.3c1.3,0.6,2.6,1.2,4,1.7c12.5,4.2,25.2,8.1,37.3,13.4
	c9.6,4.1,13,13.2,8.9,19.8c-2.4,3.9-5.1,7.6-8.2,11c-1.5,1.6-3.1,3.2-4.7,4.8c-13.2,13.1-28.4,23.6-46,30.3
	c-12,4.6-24.3,7.1-36.6,1.9c-10.1-4.2-14.9-9.8-13.5-19.9c0.6-4.7,2.1-9.3,2.9-14c1.6-9.6,3.6-19.2,4.1-28.9
	c0.5-10.5-8.4-17.6-18.5-16c-6.4,1-13.6,11.1-14.2,18.9c-1,14,2.2,27.3,5.6,40.7c2.8,11.2-2.8,18.2-13.9,18c-7.8,0-15.5-1-23-2.9
	c-26.8-7.3-48-22.5-63.2-45.9c-0.9-1.4-1.6-2.9-2.2-4.5c0-5,1.8-9.6,5.7-14c2.4-2.7,5.3-5.1,8.4-7c1.3-0.7,2.6-1.3,4-1.9
	c5.6-2.4,11.3-4.4,17-6.5c7.8-2.3,15.5-4.4,21.3-10.8c3.9-4.4,5.5-9.2,5.1-13.5c0.1-5.2-2.5-9.6-7.4-11.4c-6-2.2-12-2.7-17.6-1
	c-4.7,0.4-9.1,2.2-12.7,5.2c-8.9,7.5-17.4,15.4-25.9,23.4c-2.3,2.2-5.1,3.7-8.2,4.3c-1.3,0-2.6-0.2-3.9-0.5
	c-3.5-0.8-6.8-2.5-9.4-4.9c-0.3-0.4-0.6-0.7-0.9-1.1c-7.6-11.7-10.4-24.7-12.2-38.2c-2.6-19.9-0.5-38.9,9-56.6
	c0.3-0.6,0.6-1.2,0.9-1.8c5.9-10.4,21.1-17.6,33.1-7.8c5.1,4.2,9.8,8.8,15.2,12.6c6.4,4.6,12.8,9.6,20,12.4
	c6.8,2.7,14.7,1.8,19.9-4.3c4.8-5.5,3.9-12.2,0.7-18.5c-0.5-0.9-1.1-1.8-1.7-2.6c-1.8-2.4-4.2-4.5-6.9-5.9l-0.1-0.1l-0.5-0.3
	c-1.3-0.6-2.6-1.2-4-1.6c-12.5-4.3-25.2-8.1-37.3-13.4c-9.6-4.1-13.1-13.2-8.9-19.8c2.4-3.9,5.1-7.6,8.2-11c1.5-1.6,3.1-3.2,4.7-4.8
	c13.2-13.1,28.4-23.6,46-30.3c12-4.6,24.3-7.1,36.6-1.9c10.1,4.2,14.9,9.8,13.5,19.9c-0.6,4.7-2.1,9.3-2.9,14
	c-1.5,9.6-3.6,19.2-4.1,28.9c-0.5,10.5,8.4,17.6,18.5,16c6.4-1,13.6-11.1,14.2-18.9c1-14-2.2-27.3-5.6-40.7
	c-2.8-11.2,2.8-18.2,13.9-18c7.8,0,15.5,1,23,2.9c26.7,7.3,47.9,22.5,63.1,45.8c1.4,2.3,2.1,5,1.9,7.6c0,0.1,0,0.2,0,0.4
	s-0.1,0.5-0.2,0.8c-0.9,3.7-2.7,7.1-5.2,9.8c-2.4,2.7-5.3,5.1-8.4,7c-1.3,0.7-2.6,1.3-4,1.9c-5.6,2.4-11.3,4.4-17,6.5
	c-4.1,1.5-8.3,3.1-12.2,5c-4.6,2.2-8.5,5.7-11.3,10c-1.7,2.8-2.7,6-2.8,9.3c-0.1,5.1,2.5,9.6,7.4,11.4c6,2.2,12,2.7,17.6,1
	c3.3-1,6.3-2.7,8.9-4.9c7.6-6.5,14.6-13.9,22-20.6c4.6-4.2,9.6-7.5,15.9-7.4c1.3,0,2.6,0.2,3.9,0.5c3.5,0.8,6.8,2.5,9.4,4.9
	c0.3,0.4,0.6,0.7,0.9,1.1c7.5,11.6,10.4,24.6,12.1,38.1C390.4,331.7,388.3,350.7,378.8,368.4L378.8,368.4z"/>
<path class="st0" d="M406.1,321.4c0-0.7,0-1.4-0.1-2.1c-0.1-4.4-0.4-8.7-0.9-13.1c-1.6-15.4-5.9-29.5-14.9-42
	c-3.9-5.4-8.6-10.7-16-11c-6-0.2-8.7-3.5-7.6-9.5c1.2-6.9,2-14-2.2-20.4c-7.5-11.5-15.5-22.5-26.3-31.5c-0.3-0.3-0.7-0.5-1-0.8
	c-18.5-15.1-38.6-26.3-62.8-28.8c-12.1-1.3-23.8-1.1-32.4,6.5c-0.1,0-0.1,0-0.2,0.1c-3.4,2.5-7,0.7-8,0.1c-4.3-2.7-8.4-5.4-12.9-6.4
	c-10.9-2.3-22.1-2.4-33-0.2c-8.5,1.7-16.8,4.3-24.7,7.8c-1.1,0.5-2.2,1.1-3.3,1.6c-2.6,1.3-5.1,2.6-7.6,4
	c-16.8,9.7-30.5,23.2-42.1,39l-1.5,2.1c-5.8,8-11.2,16.4-4.6,26.1c0.6,0.8,1.2,1.6,1.8,2.4c-0.6,0.7-0.6,0.9-0.8,1
	c-1.1,0.4-2.2,0.8-3.3,1.2l0,0c-2,0.7-4,1.6-6,2.5l-0.8,0.4c-14.1,6.9-23.2,18.5-27.7,34.2c-2.4,8.6-4,17.5-4.7,26.4
	c-0.1,1.1-0.2,2.2-0.2,3.3c-0.1,0.9-0.1,1.9-0.1,2.8c-0.1,1.6-0.1,3.2-0.1,4.8c0,1.2,0,2.4,0,3.6c0,0.7,0,1.4,0,2.1
	c0.1,4.3,0.4,8.7,0.9,13.1c1.6,15.4,5.9,29.5,14.9,42c3.9,5.4,8.6,10.7,16,11c6,0.2,8.7,3.5,7.6,9.5c-1.2,6.9-1.9,14,2.2,20.4
	c7.5,11.5,15.4,22.5,26.3,31.5c0.3,0.3,0.7,0.5,1,0.8c18.5,15.2,38.6,26.3,62.8,28.8c12.6,1.3,24.7,1,33.4-7.6l0.1,0.1
	c1.2-1.1,2.9-1.4,4.4-0.9c5.3,3.2,10.2,6.9,15.6,8.1c10.9,2.3,22.1,2.4,33,0.2c8.5-1.7,16.8-4.3,24.7-7.8c1.1-0.5,2.2-1.1,3.3-1.6
	c2.6-1.3,5.1-2.6,7.6-4c16.8-9.7,30.5-23.2,42.1-39l1.5-2.1c5.8-8,11.2-16.4,4.6-26.1c-0.6-0.8-1.2-1.6-1.8-2.4
	c0.5-0.7,0.6-0.9,0.8-1c1.1-0.4,2.2-0.8,3.3-1.2l0,0c2-0.7,4-1.6,6-2.5l0.4-0.1c0.1,0,0.3-0.2,0.4-0.3c14.1-6.9,23.2-18.5,27.7-34.2
	c2.4-8.6,4-17.5,4.7-26.4c0.1-1.1,0.2-2.2,0.2-3.3c0.1-0.9,0.1-1.9,0.1-2.8c0.1-1.6,0.1-3.2,0.1-4.8
	C406.1,323.8,406.2,322.6,406.1,321.4z M367.3,392.6c-1.5,0.4-3,0.8-4.5,1.1c-1.4,0.2-2.8,0.8-3.9,1.7c-2.5,2-2.8,5.3-0.6,9.1
	c4.7,8,2.4,14.9-2.5,21c-1.6,2-3.2,4-4.8,5.9c-5.2,6.6-10.9,12.7-17.1,18.4c-22,19.4-46.5,33.6-77.4,29.6c-6.4-1-12.5-3.5-17.6-7.4
	c-7.4-5.5-6.9-6.2-14.5-1.2c-0.9,0.5-1.7,1-2.6,1.4c-14.6,7.3-29.6,6.1-44.8,1.7c-11.8-3.5-22.9-8.8-33-15.8l-1.8-1.2
	c-4-2.8-7.9-5.9-11.6-9.1c-8.9-7.8-17.4-16.2-21.6-27.2c-1.3-3.3-2.1-6.7-2.5-10.2c-0.4-3.9,0.4-7.9,0.2-11.8c0-1,0.1-2.1,0.3-3.1
	c0.4-3,0.8-6.1-4.5-5.8c-6.7,0.5-10.9-2.9-15.1-7c-3.1-3.1-6-6.5-8.4-10.2c-8.3-12.3-11.8-26.7-11.8-41.7c0-5.3,0.4-10.5,1.2-15.7
	c0.3-7.6,1.3-15.2,3-22.6c3.9-17.5,10.9-33,29.5-38.5c1.5-0.5,3-0.8,4.6-1.1c1.4-0.2,2.8-0.8,3.9-1.7c2.5-2,2.8-5.3,0.6-9.2
	c-4.6-8-2.4-14.8,2.5-21c1.6-2,3.2-4,4.8-5.9c5.2-6.6,10.9-12.7,17.1-18.4c22-19.4,46.5-33.6,77.4-29.6c6.4,1,12.5,3.5,17.6,7.4
	c7.4,5.5,6.9,6.2,14.5,1.2c0.9-0.5,1.7-1,2.7-1.4c14.6-7.4,29.6-6.1,44.7-1.7c11.8,3.5,22.9,8.8,33,15.8c0.6,0.4,1.2,0.8,1.8,1.2
	c4,2.8,7.9,5.8,11.6,9.1c9,7.8,17.4,16.2,21.6,27.2c1.3,3.3,2.1,6.7,2.5,10.2c0.5,3.9-0.4,7.9-0.2,11.8c0,1-0.1,2.1-0.3,3.1
	c-0.5,3-0.8,6.1,4.5,5.8c6.7-0.5,10.9,2.9,15.1,7c3.1,3.1,6,6.5,8.4,10.2c8.3,12.3,11.8,26.6,11.8,41.7c0,5.3-0.4,10.5-1.2,15.7
	c-0.3,7.6-1.3,15.2-3,22.6C392.8,371.5,385.8,387.1,367.3,392.6L367.3,392.6z"/>
<path class="st0" d="M435.1,258v181.5l-0.8,0.4L234,555.5l-0.8-0.4L33,439.5V207.3l0.8-0.4L233.5,91.5V68.2
	c-1.7,0.1-3.3,0.6-4.8,1.4L16.9,191.9c-3.3,1.9-5.3,5.4-5.3,9.2v244.5c0,3.8,2,7.3,5.3,9.2L228.7,577c3.3,1.9,7.4,1.9,10.7,0
	l211.8-122.2c3.3-1.9,5.3-5.4,5.3-9.2V258H435.1z"/>
<path class="st0" d="M276.8,320.6c4.1-3.4,6.4-8.4,6.3-13.7c0-15.4-11.2-21.3-25.2-21.3h-26.6v46l-29.2-46h-11v73.5h13.3v-46
	l29.2,46h26c14.6,0,26-5.9,26-22C285.8,330.6,283,324.2,276.8,320.6z M244.7,298.1h13.5c6.3,0,12,1.2,12,8.9s-5.5,9.1-11.9,9.1
	h-13.6V298.1z M259.7,346.6h-15.1v-18.8h15.1c6.8,0,12.8,1.3,12.8,9.5S266.5,346.6,259.7,346.6L259.7,346.6z"/>
<path class="st0" d="M617.5,550.8h-39.1v-3.9h39.1V550.8z"/>
<path class="st0" d="M672.2,576.2c-8.8,0-16.4-3.3-18.6-11.7l3.8-0.9c1.9,6.7,8.4,8.8,14.8,8.8c5.5,0,13-2.5,13-9.8
	c0-14.4-30.3-6.2-30.3-22.7c0-8.2,7.6-11.8,15.7-11.8c7.4,0,12.8,2.1,16.4,8.3l-3.4,1.7c-2.9-4.9-7.5-6.2-12.9-6.2
	c-4.4,0-11.7,1.3-11.7,7.9c0,12.6,30.3,4.7,30.3,22.6C689.4,571.4,680.8,576.2,672.2,576.2z"/>
<path class="st0" d="M703.3,515c-2.1,0-3.8-1.7-3.8-3.8l0,0c0-2,1.6-3.7,3.6-3.8h0.1c2.1,0,3.8,1.7,3.8,3.8l0,0
	C707,513.3,705.4,514.9,703.3,515z M705.3,575.3h-4.2v-46.4h4.2V575.3z"/>
<path class="st0" d="M752.2,576l-1.5-7c-3.5,5.3-9.2,7.2-14.3,7.2c-14.8,0-18.8-10.8-18.8-24.1c0-13,4.3-24.1,19-24.1
	c4.3,0,10.4,1.8,13.6,7.2v-27.4h4.2v59.6c0,0,1.5,7.5,1.5,7.6L752.2,576z M750.3,544.5c0-7.6-6.3-12.6-13.6-12.6
	c-12.9,0-14.8,10.7-14.8,20.1c0,9.4,1.8,20.1,14.6,20.1c7.4,0,13.8-4.6,13.8-12.5V544.5z"/>
<path class="st0" d="M804.1,552.5h-33.7c0.2,11.7,4.3,19.8,16.8,19.8c5.2,0,9.3-1.5,12.5-4.9l2.8,2.5c-3.9,4.2-8.6,6.3-15.3,6.3
	c-15.2,0-21.1-10-21.1-24.1c0-13.4,5.5-24,20.1-24c12.4,0,17.8,9.3,17.8,21.3L804.1,552.5z M800.1,549.2
	c-0.2-9.5-3.6-17.2-13.9-17.2s-15,6.8-15.8,17.2H800.1z"/>
<path class="st0" d="M851.7,575.3h-4V549c0-9.8-3.2-16.9-14.8-16.9c-7.8,0-13.7,6.2-13.7,12v31.2H815v-46.4h3.8l0.1,7
	c2.9-5,8.3-8,14.1-7.9c13.5,0,18.7,8.2,18.7,20.9L851.7,575.3z"/>
<path class="st0" d="M906.9,575.3h-4.3v-62l-11.8,8.5l-2.2-3.2l14.7-10.8h3.7L906.9,575.3z"/>
<path class="st0" d="M944.8,576c-12,0-21.1-7.4-21.1-19.3c0-7.2,3.3-13.9,12.6-17c-6.4-2.2-10.7-8.3-10.5-15.1
	c0-10.5,8.5-17.4,19-17.4s19,6.9,19,17.4c0,5.5-2.6,12.1-10.7,15.1c9.5,3.1,12.8,9.8,12.8,17C965.8,568.5,956.6,576,944.8,576z
	 M944.8,541.5c-9.4,0-16.7,5.1-16.7,15.1c0,9.3,7.7,15.3,16.7,15.3s16.7-6,16.7-15.3C961.5,546.8,954.1,541.5,944.8,541.5
	L944.8,541.5z M944.8,511c-7.7,0-14.9,5.4-14.9,13.6c0,8.8,6.7,13.4,14.9,13.4s14.8-4.6,14.8-13.4C959.6,516.4,952.5,511,944.8,511
	L944.8,511z"/>
<path class="st0" d="M996.4,576c-12,0-21.1-7.4-21.1-19.3c0-7.2,3.3-13.9,12.6-17c-6.4-2.2-10.7-8.3-10.5-15.1
	c0-10.5,8.5-17.4,19.1-17.4s19,6.9,19,17.4c0,5.5-2.6,12.1-10.7,15.1c9.5,3.1,12.8,9.8,12.8,17C1017.5,568.5,1008.2,576,996.4,576z
	 M996.4,541.5c-9.4,0-16.7,5.1-16.7,15.1c0,9.3,7.7,15.3,16.7,15.3s16.7-6,16.7-15.3C1013.1,546.8,1005.7,541.5,996.4,541.5
	L996.4,541.5z M996.4,511c-7.7,0-14.9,5.4-14.9,13.6c0,8.8,6.7,13.4,14.9,13.4s14.8-4.6,14.8-13.4
	C1011.2,516.4,1004.1,511,996.4,511L996.4,511z"/>
<path class="st0" d="M1070.2,557.5h-6.7v17.8h-4.1v-17.8h-33.1V553l28.9-45.2h4.6l-29.1,45.6h28.7v-27.5l4.1,0.7v26.9h6.7V557.5z"/>
<path class="st0" d="M671.8,260.3h-24.5l-44.1-66.4v66.4h-31.3V128.7h24.7l43.9,66.2v-66.2h31.3L671.8,260.3L671.8,260.3z"/>
<path class="st0" d="M749.2,261.8c-40.7,0-56.8-32-56.8-67.3s16-67.3,56.8-67.3c40.5,0,56.8,32,56.8,67.3S789.8,261.8,749.2,261.8z
	 M749.2,158.1c-21.7,0-25.1,19.2-25.1,36.4s3.4,36.4,25.1,36.4s25.1-19.2,25.1-36.4S771.3,158.1,749.2,158.1L749.2,158.1z"/>
<path class="st0" d="M901,205.6c1.1,1.9,2.4,3.7,3.8,5.5l32.6,49.2h-36.6l-26.6-43.4c-4.2-6.8-5.1-7.7-13.2-7.7h-3v51.1h-31.3V128.7
	h50c26.2,0,47.3,12.8,47.3,41.1C924,185.3,914.4,199.8,901,205.6z M876.7,158.9H858v22.8h18.7c9,0,15.8-1.7,15.8-11.7
	C892.5,160.4,885.2,158.9,876.7,158.9z"/>
<path class="st0" d="M1045.2,185.1v75.2H1019v-6.8c-6.6,6.4-14.9,8.3-24,8.3c-39.8,0-55.6-32.6-55.6-67.3c0-35.3,16-67.3,56.4-67.3
	c22.4,0,34.9,8.9,47.9,26.4l-21.9,19.8c-6.8-9.2-13.4-15.3-26-15.3c-21.5,0-25.1,19.4-25.1,36.4c0,17.2,3.8,36.4,25.4,36.4
	c12.3,0,17.7-8.9,17.7-19.2h-21.7v-26.6L1045.2,185.1L1045.2,185.1z"/>
<path class="st0" d="M1160.8,260.3h-93.5V128.7h93.5v30.9h-62.2v18.5h54.1v29.6h-54.1v21.7h62.2V260.3z"/>
<path class="st0" d="M1228.3,262.2c-28.8,0-47.5-14.1-54.9-41.7l29.6-5.9c3.6,11.9,11.5,17.7,25.3,17.7c8.3,0,19.8-4.1,19.8-13.4
	c0-19.2-70.5-4.7-70.5-52.8c0-26,23.8-39,47.1-39c25.1,0,40.3,9.6,51.3,31.5l-27.2,12.1c-5.5-9.6-11.1-14.5-24.1-14.5
	c-6,0-15.8,2.8-15.8,10c0,15.8,70.5,4.9,70.5,52.8C1279.4,246.7,1253.9,262.2,1228.3,262.2z"/>
<path class="st0" d="M624.6,439h-52.8V307.4h50c25.8,0,46.8,11.3,46.8,40c0,7.9-2.4,15.6-6.8,22.1c7.5,6.6,11.3,17.5,11.3,28.3
	C673.1,427.7,652.2,439,624.6,439z M622.2,337.2h-19v21.5h18.7c8.9,0,16-1.1,16-11.1C637.8,338,630.8,337.2,622.2,337.2z
	 M624.6,386.4h-21.5v23h21.5c9.4,0,17-0.8,17-11.3C641.6,387.4,634,386.4,624.6,386.4L624.6,386.4z"/>
<path class="st0" d="M724.3,439h-31.5V307.4h31.5V439z"/>
<path class="st0" d="M824.1,384.4c1.1,1.9,2.4,3.7,3.8,5.5l32.6,49.2h-36.6l-26.6-43.4c-4.2-6.8-5.1-7.7-13.2-7.7h-3v51.1h-31.3
	V307.4h50c26.2,0,47.3,12.8,47.3,41.1C847.1,364,837.5,378.5,824.1,384.4z M799.8,337.6h-18.7v22.8h18.7c9,0,15.8-1.7,15.8-11.7
	C815.6,339.1,808.2,337.6,799.8,337.6z"/>
<path class="st0" d="M921.2,440.5c-6.8,0-13.6-1-20.2-2.8l-1.7,3.6h-25.5l8.3-16c-13.6-13.8-17.7-33.9-17.7-52
	c0-35.5,16.2-67.3,56.7-67.3c6.9,0,13.8,1,20.4,3l1.7-3.8h25.4l-8.3,16c13.4,13.6,17.5,33.9,17.5,52
	C977.9,408.7,961.5,440.5,921.2,440.5z M927,336.6c-2.3,0.2-4.1,0.2-5.8,0.2c-21.9,0-25.1,19-25.1,36.4c0,7.2,0,14.5,1.9,21.3
	L927,336.6z M944.3,351.7l-28.8,58.1c2.1,0,4.2-0.2,5.7-0.2c21.7,0,25.1-19,25.1-36.4C946.2,366.1,946.2,358.5,944.3,351.7
	L944.3,351.7z"/>
<path class="st0" d="M998.7,439V307.4h31.3V439H998.7z M1067.1,372.5l43.6,66.5h-36.8l-40.5-66.7l37.9-64.9h34.3L1067.1,372.5z"/>
<path class="st0" d="M1221.5,338.3h-36.6V439h-31.3V338.3h-36.4v-30.9h104.3V338.3z"/>
<path class="st0" d="M1334.4,439h-93.5V307.4h93.5v30.9h-62.2v18.5h54.1v29.6h-54.1v21.7h62.2V439z"/>
<path class="st0" d="M1431.3,384.4c1.1,1.9,2.4,3.7,3.8,5.5l32.6,49.2h-36.6l-26.6-43.4c-4.2-6.8-5.1-7.7-13.2-7.7h-3v51.1H1357
	V307.4h50c26.2,0,47.3,12.8,47.3,41.1C1454.3,364,1444.7,378.5,1431.3,384.4z M1407,337.6h-18.7v22.8h18.7c9,0,15.8-1.7,15.8-11.7
	C1422.8,339.1,1415.5,337.6,1407,337.6z"/>
<path class="st0" d="M1564.8,439h-85.6V307.4h31.1v101.2h54.5V439z"/>
<path class="st0" d="M1707.1,439H1673l-11.3-31.5h-39.4c0,0.2-11.3,31.3-11.3,31.5h-34l51.7-131.6h26.2L1707.1,439z M1651.3,380.2
	c-0.2-0.6-9.2-25.8-9.4-26.4l-9.2,26.4H1651.3z"/>
<path class="st0" d="M1816.3,363.8V439h-26.2v-6.8c-6.6,6.4-14.9,8.3-23.9,8.3c-39.8,0-55.6-32.6-55.6-67.3
	c0-35.3,16-67.3,56.4-67.3c22.4,0,34.9,8.9,47.9,26.4l-21.9,19.8c-6.8-9.2-13.4-15.3-26-15.3c-21.5,0-25.1,19.4-25.1,36.4
	c0,17.2,3.8,36.4,25.5,36.4c12.2,0,17.7-8.9,17.7-19.2h-21.7v-26.6H1816.3z"/>
</svg>
